<svg width="163" height="192" viewBox="0 0 163 192" fill="none" xmlns="http://www.w3.org/2000/svg"><path opacity=".05" fill-rule="evenodd" clip-rule="evenodd" d="M249 77.152h-64.609c-4.867 28.676-29.829 50.512-59.891 50.512-30.062 0-55.024-21.836-59.891-50.512H0c5.208 64.199 58.96 114.675 124.5 114.675 65.541 0 119.292-50.476 124.5-114.675zm-.118-21.842h-64.739c-5.416-28.001-30.06-49.147-59.643-49.147-29.583 0-54.228 21.146-59.643 49.147H.118C5.972-8.238 59.425-58 124.5-58S243.028-8.238 248.882 55.31zM166.25 66.914c0 23.058-18.692 41.75-41.75 41.75s-41.75-18.692-41.75-41.75c0-23.059 18.692-41.75 41.75-41.75s41.75 18.691 41.75 41.75z" fill="#303943"/></svg>